<?xml version="1.0" standalone="no"?>
<!DOCTYPE svg PUBLIC "-//W3C//DTD SVG 20010904//EN"
 "http://www.w3.org/TR/2001/REC-SVG-20010904/DTD/svg10.dtd">
<svg version="1.0" xmlns="http://www.w3.org/2000/svg"
 width="300.000000pt" height="300.000000pt" viewBox="0 0 300.000000 300.000000"
 preserveAspectRatio="xMidYMid meet">
<metadata>
Created by potrace 1.10, written by Peter Selinger 2001-2011
</metadata>
<g transform="translate(0.000000,300.000000) scale(0.100000,-0.100000)"
fill="#000000" stroke="none">
<path d="M1093 2228 c-14 -23 -6 -121 16 -202 26 -98 26 -148 1 -204 -22 -49
-108 -143 -188 -204 l-55 -42 52 -48 c59 -54 100 -62 144 -28 36 29 41 62 17
116 -24 52 -22 65 28 149 50 83 55 156 17 280 -21 68 -26 101 -22 142 6 55 4
62 -10 41z m-53 -623 c21 -64 -8 -97 -61 -69 -46 23 -48 43 -9 76 44 36 56 35
70 -7z"/>
<path d="M964 2156 c-52 -23 -114 -121 -114 -179 0 -32 -34 -75 -63 -79 -18
-2 -22 -9 -22 -37 0 -19 -6 -36 -12 -38 -7 -3 -13 -14 -13 -26 0 -12 -4 -29
-10 -37 -5 -8 -5 -19 0 -25 4 -5 8 -26 7 -47 -1 -47 13 -63 75 -84 49 -16 51
-16 71 5 l21 21 -49 0 c-55 0 -96 17 -102 40 -4 12 -3 12 5 1 8 -11 11 -11 18
0 5 8 9 20 10 27 2 11 0 11 -13 0 -14 -11 -16 -10 -9 15 5 20 3 27 -8 27 -9 0
-13 6 -10 13 5 14 60 11 80 -4 26 -21 33 31 7 52 -15 13 -15 12 -5 -8 17 -30
15 -51 -2 -28 -7 10 -24 19 -37 20 -13 1 -23 5 -21 8 1 4 2 12 2 17 0 6 8 10
18 10 29 0 33 11 10 30 l-22 17 31 16 c17 9 33 14 36 11 3 -3 10 20 17 50 7
34 16 54 22 50 6 -4 8 1 3 16 -9 29 11 67 41 74 13 4 24 11 24 16 0 6 7 10 15
10 10 0 15 7 13 18 -4 23 36 28 68 8 23 -15 24 -15 24 3 0 31 -54 39 -106 17z"/>
<path d="M1062 2090 c2 -14 6 -29 9 -35 4 -5 9 -23 13 -39 4 -15 9 -26 11 -24
5 5 -21 108 -30 116 -3 4 -5 -5 -3 -18z"/>
<path d="M895 2039 c-11 -17 3 -23 45 -20 21 1 52 -4 68 -13 29 -15 42 -13 42
8 0 6 -4 6 -8 -2 -7 -9 -15 -6 -36 13 -29 26 -98 36 -111 14z"/>
<path d="M1230 1989 c-11 -8 -7 -9 18 -5 43 7 96 -18 89 -42 -3 -9 -34 -84
-69 -167 -46 -110 -69 -153 -86 -160 -36 -16 -26 -20 35 -16 32 3 50 6 41 8
-23 6 -23 21 2 77 l19 46 74 0 74 0 13 -42 c20 -70 56 -133 94 -166 40 -35 95
-50 123 -33 15 9 12 10 -18 11 -75 0 -114 56 -192 276 -56 155 -77 198 -108
214 -24 13 -90 12 -109 -1z m160 -158 l28 -81 -64 0 c-35 0 -64 2 -64 4 0 13
63 166 67 163 2 -3 17 -41 33 -86z"/>
<path d="M2265 1987 c78 -36 136 -150 143 -280 4 -83 3 -89 -17 -94 -39 -10
-22 -18 39 -18 60 0 78 8 40 18 -18 5 -20 14 -20 81 0 119 59 249 132 287 22
12 27 18 15 19 -51 1 -106 -58 -142 -152 -10 -27 -19 -48 -20 -48 -1 0 -12 26
-23 58 -28 74 -84 131 -138 138 l-39 5 30 -14z"/>
<path d="M2075 1970 c-44 -3 -70 -7 -59 -8 12 -1 25 -9 28 -18 3 -9 6 -80 6
-159 0 -79 -3 -150 -6 -159 -3 -9 -15 -16 -26 -16 -10 0 -17 -3 -15 -7 3 -5
63 -7 134 -5 l129 3 15 37 c7 20 15 40 17 45 2 4 -1 7 -7 7 -6 0 -11 -6 -11
-13 0 -7 -9 -23 -20 -35 -18 -19 -31 -22 -100 -22 l-80 0 0 75 0 75 60 0 c47
0 60 -3 60 -15 0 -8 5 -15 10 -15 6 0 10 21 10 46 0 27 -4 43 -10 39 -5 -3
-10 -13 -10 -21 0 -11 -14 -14 -60 -14 l-60 0 0 80 0 80 40 0 c33 0 42 -4 50
-22 8 -20 9 -18 9 15 1 24 -3 36 -11 35 -7 -1 -49 -5 -93 -8z"/>
<path d="M872 1940 c0 -16 4 -30 9 -30 5 0 9 4 9 9 0 5 9 11 19 14 13 3 18 1
14 -8 -3 -9 2 -12 14 -11 10 2 21 -2 25 -8 5 -7 8 -6 8 4 0 16 -61 60 -83 60
-9 0 -14 -12 -15 -30z"/>
<path d="M1041 1948 c-6 -10 -11 -23 -10 -30 0 -7 4 -3 9 10 15 36 36 26 31
-15 -1 -6 4 -15 10 -18 8 -5 9 4 5 31 -3 22 -5 39 -6 40 -3 8 -30 -4 -39 -18z"/>
<path d="M1543 1955 c-17 -7 -36 -22 -42 -34 -18 -34 -12 -36 18 -7 18 17 44
30 70 33 l42 6 -3 -164 c-3 -163 -3 -163 -28 -176 -30 -15 -34 -14 105 -13 92
1 117 4 155 23 60 30 90 82 90 160 0 86 -35 139 -112 172 -49 20 -249 20 -295
0z m295 -25 c49 -30 72 -75 72 -143 0 -118 -41 -159 -168 -167 l-82 -5 0 168
0 167 73 0 c54 0 80 -5 105 -20z"/>
<path d="M907 1855 c-17 -58 -18 -70 -8 -55 10 13 11 13 11 0 -1 -8 -7 -24
-15 -34 -25 -33 -19 -46 15 -34 37 12 45 25 30 43 -6 8 -9 19 -6 24 4 5 0 25
-7 43 -12 29 -15 30 -20 13z"/>
<path d="M278 1544 c22 -15 22 -19 22 -249 0 -212 -2 -235 -17 -244 -14 -8 -7
-10 31 -11 42 0 47 2 33 13 -16 11 -17 32 -15 201 l3 189 70 -182 c49 -127 74
-181 84 -179 8 2 24 30 37 63 12 33 48 125 78 205 l55 145 1 -207 c0 -195 -1
-209 -20 -228 l-20 -20 97 0 96 0 -21 23 c-21 22 -22 31 -22 237 0 207 1 214
22 237 l22 24 -78 -3 -78 -3 -65 -165 c-36 -91 -66 -166 -68 -168 -1 -1 -29
74 -60 168 l-59 170 -75 0 c-71 0 -74 -1 -53 -16z m107 -51 c4 -10 25 -69 46
-132 21 -63 46 -125 55 -139 10 -16 12 -28 6 -34 -6 -6 -17 10 -32 49 -12 32
-41 99 -66 150 -24 51 -44 99 -44 108 0 21 26 19 35 -2z m345 -193 c0 -180 -2
-210 -15 -210 -13 0 -15 26 -15 173 0 94 -3 189 -6 210 -6 33 -4 37 15 37 21
0 21 -2 21 -210z"/>
<path d="M1820 1545 c-14 -8 -45 -17 -69 -21 -34 -5 -40 -9 -27 -16 14 -8 16
-35 16 -223 0 -210 0 -214 -22 -229 -21 -15 -16 -16 76 -16 95 0 98 1 76 18
-21 17 -21 21 -18 260 2 133 1 242 -2 242 -3 -1 -16 -7 -30 -15z m-10 -261 c0
-152 -3 -195 -12 -192 -10 4 -14 51 -16 183 -3 182 -1 205 18 205 6 0 10 -68
10 -196z"/>
<path d="M2595 1546 c-11 -9 -41 -18 -67 -22 -46 -6 -59 -16 -38 -29 6 -4 10
-87 10 -217 0 -189 -2 -212 -17 -224 -15 -11 -4 -13 77 -13 81 0 92 2 78 13
-15 11 -18 30 -18 130 l0 116 36 17 c34 17 36 17 50 -2 10 -13 14 -50 14 -131
0 -105 -1 -114 -22 -128 -21 -15 -16 -16 77 -16 91 0 98 1 78 15 -20 14 -22
25 -25 151 l-3 136 -29 25 c-36 31 -72 26 -134 -17 -23 -17 -44 -30 -45 -30
-2 0 -1 44 1 98 2 53 2 107 1 120 -4 21 -5 22 -24 8z m-22 -133 c15 -158 5
-345 -17 -322 -3 3 -6 86 -6 184 -1 221 -2 205 9 205 4 0 11 -30 14 -67z m217
-214 c0 -58 -4 -100 -11 -104 -6 -4 -12 -5 -13 -4 -2 2 -6 60 -9 129 -5 124
-5 125 14 101 16 -19 19 -40 19 -122z"/>
<path d="M935 1373 c-64 -17 -105 -81 -105 -163 0 -93 49 -156 129 -167 61 -8
141 48 141 99 0 17 -4 16 -29 -11 -33 -35 -41 -37 -85 -16 -30 14 -66 60 -66
84 0 7 33 11 95 11 88 0 95 1 95 20 0 36 -32 100 -59 119 -29 21 -84 32 -116
24z m69 -54 c14 -17 26 -37 26 -44 0 -27 -31 -45 -76 -45 -40 0 -44 2 -44 25
0 14 7 41 14 60 19 44 45 45 80 4z"/>
<path d="M1188 1364 c-34 -18 -48 -43 -48 -86 1 -44 22 -69 98 -113 49 -28 62
-41 62 -60 0 -56 -118 -59 -135 -3 -11 31 -25 20 -25 -19 l0 -38 83 -3 c73 -2
87 0 117 20 26 17 36 32 38 55 5 50 -22 87 -97 137 -38 25 -71 53 -75 61 -9
25 24 48 62 42 41 -7 61 -23 78 -62 l13 -30 1 49 c0 27 -3 47 -6 43 -4 -3 -19
0 -35 8 -36 19 -96 18 -131 -1z m46 -129 c18 -14 38 -25 43 -25 6 0 14 -7 17
-16 5 -12 -2 -11 -32 7 -40 24 -81 59 -69 59 5 0 23 -11 41 -25z"/>
<path d="M1515 1373 c-118 -31 -147 -231 -43 -304 40 -29 97 -35 136 -15 34
18 72 65 72 91 0 13 -7 9 -29 -14 -33 -36 -41 -37 -87 -15 -32 15 -64 57 -64
84 0 6 35 10 95 10 88 0 95 1 95 20 0 36 -32 100 -59 119 -29 21 -84 32 -116
24z m62 -45 c51 -56 32 -98 -43 -98 -40 0 -44 2 -44 25 0 14 7 41 14 60 18 41
43 45 73 13z"/>
<path d="M1983 1360 c-58 -29 -87 -90 -81 -166 5 -61 26 -96 79 -132 62 -43
145 -16 185 60 8 15 10 29 5 32 -5 3 -11 -1 -14 -8 -3 -8 -17 -22 -31 -31 -22
-14 -28 -15 -60 -1 -31 13 -76 65 -76 89 0 4 43 7 96 7 l97 0 -6 40 c-13 102
-105 154 -194 110z m87 -30 c51 -51 31 -100 -41 -100 -47 0 -52 8 -40 61 14
61 44 76 81 39z"/>
<path d="M2258 1364 c-83 -45 -57 -144 53 -199 62 -32 77 -57 49 -85 -30 -30
-76 -26 -112 10 -17 17 -31 30 -33 28 -1 -2 0 -19 2 -38 l5 -36 88 1 c79 0 91
2 114 24 32 30 35 87 6 123 -10 14 -49 44 -85 68 -41 27 -65 49 -65 61 0 20
28 39 59 39 27 0 81 -47 81 -71 0 -10 5 -19 10 -19 6 0 10 21 10 46 0 34 -3
45 -13 41 -7 -3 -24 1 -38 9 -32 18 -97 17 -131 -2z m77 -149 l30 -27 -44 24
c-25 13 -47 29 -49 36 -6 18 21 4 63 -33z"/>
</g>
</svg>
